<svg width="54" height="54" viewBox="0 0 54 54" fill="none" xmlns="http://www.w3.org/2000/svg">
<g id="arrow_back_ios_new">
<mask id="mask0_584_230" style="mask-type:alpha" maskUnits="userSpaceOnUse" x="0" y="0" width="54" height="54">
<rect id="Bounding box" width="54" height="54" fill="#D9D9D9"/>
</mask>
<g mask="url(#mask0_584_230)">
<path id="arrow_back_ios_new_2" d="M21.0478 26.9973L38.6051 44.5546C39.0534 45.012 39.2799 45.5837 39.2844 46.2697C39.2889 46.9557 39.0624 47.5461 38.6051 48.041C38.1102 48.5268 37.5198 48.7697 36.8338 48.7697C36.1478 48.7697 35.5619 48.5268 35.076 48.041L16.7177 29.6826C16.3353 29.3003 16.058 28.876 15.8856 28.4097C15.7132 27.9434 15.627 27.4726 15.627 26.9973C15.627 26.5221 15.7132 26.0513 15.8856 25.5849C16.058 25.1186 16.3353 24.6943 16.7177 24.312L35.1323 5.9109C35.6181 5.41608 36.1924 5.1758 36.8552 5.19005C37.518 5.20434 38.1013 5.45889 38.6051 5.9537C39.0534 6.44855 39.287 7.0296 39.3057 7.69683C39.3245 8.36411 39.0909 8.94517 38.6051 9.44002L21.0478 26.9973Z" fill="black"/>
</g>
</g>
</svg>
