<svg width="54" height="54" viewBox="0 0 54 54" fill="none" xmlns="http://www.w3.org/2000/svg">
<g id="arrow_forward_ios">
<mask id="mask0_579_165" style="mask-type:alpha" maskUnits="userSpaceOnUse" x="0" y="0" width="54" height="54">
<rect id="Bounding box" width="54" height="54" fill="#D9D9D9"/>
</mask>
<g mask="url(#mask0_579_165)">
<path id="arrow_forward_ios_2" d="M32.9209 26.8879L15.3636 9.33056C14.9062 8.87321 14.6753 8.30377 14.6708 7.62224C14.6664 6.94072 14.8928 6.35703 15.3501 5.87118C15.845 5.37633 16.4354 5.12891 17.1214 5.12891C17.8074 5.12891 18.3933 5.37633 18.8792 5.87118L37.2375 24.2025C37.6198 24.5849 37.8972 25.0092 38.0697 25.4755C38.242 25.9418 38.3282 26.4126 38.3282 26.8879C38.3282 27.3631 38.242 27.8339 38.0697 28.3003C37.8972 28.7666 37.6198 29.1909 37.2375 29.5732L18.8364 47.9743C18.3416 48.4691 17.7628 48.7072 17.1 48.6884C16.4372 48.6697 15.8584 48.4129 15.3636 47.9181C14.9062 47.4232 14.6682 46.8444 14.6495 46.1816C14.6307 45.5188 14.8687 44.94 15.3636 44.4452L32.9209 26.8879Z" fill="#050505"/>
</g>
</g>
</svg>
