<?xml version="1.0" standalone="no"?>
<!DOCTYPE svg PUBLIC "-//W3C//DTD SVG 20010904//EN"
 "http://www.w3.org/TR/2001/REC-SVG-20010904/DTD/svg10.dtd">
<svg version="1.0" xmlns="http://www.w3.org/2000/svg"
 width="820.000000pt" height="820.000000pt" viewBox="0 0 820.000000 820.000000"
 preserveAspectRatio="xMidYMid meet">
<metadata>
Created by potrace 1.14, written by Peter Selinger 2001-2017
</metadata>
<g transform="translate(0.000000,820.000000) scale(0.100000,-0.100000)"
fill="#000000" stroke="none">
<path d="M3649 7505 c-1 -5 -1 -12 -1 -15 0 -3 -8 -6 -18 -6 -10 0 -16 4 -14
8 3 4 1 8 -5 8 -5 0 -13 -4 -16 -10 -3 -5 -12 -10 -18 -10 -7 0 -6 4 3 10 13
8 12 10 -2 10 -10 0 -18 -4 -18 -10 0 -5 -5 -10 -11 -10 -5 0 -7 5 -4 10 3 6
1 10 -4 10 -6 0 -11 -4 -11 -10 0 -5 -5 -10 -11 -10 -5 0 -7 6 -3 13 6 9 4 9
-7 1 -8 -6 -42 -11 -77 -10 -34 1 -62 -3 -62 -8 0 -4 -7 -5 -16 -2 -8 3 -12 2
-9 -4 9 -14 -8 -12 -24 3 -11 10 -13 10 -7 0 5 -10 -5 -13 -41 -13 -27 0 -54
-5 -60 -11 -6 -6 -31 -11 -57 -11 -32 0 -44 -3 -39 -11 4 -8 1 -7 -9 1 -13 10
-17 10 -21 -1 -3 -9 -18 -13 -40 -11 -25 2 -37 -2 -41 -13 -5 -12 -9 -13 -21
-3 -10 8 -15 9 -15 2 0 -6 -9 -9 -20 -7 -11 2 -20 -1 -20 -7 0 -6 -6 -6 -15 2
-13 11 -14 10 -9 -4 5 -14 2 -16 -18 -11 -17 4 -31 1 -42 -10 -9 -9 -32 -17
-51 -17 -19 0 -32 -4 -29 -9 3 -5 -9 -9 -25 -9 -17 0 -31 -4 -31 -10 0 -5 -13
-10 -28 -10 -16 0 -37 -6 -47 -14 -11 -8 -26 -11 -34 -8 -10 4 -13 1 -9 -10 5
-11 1 -14 -17 -11 -15 3 -30 -3 -44 -18 -11 -13 -21 -18 -21 -12 0 6 -9 9 -21
6 -16 -4 -17 -8 -7 -14 9 -6 6 -9 -12 -10 -14 -1 -28 -1 -32 0 -5 0 -8 -4 -8
-9 0 -6 -12 -10 -27 -11 -25 0 -26 -1 -8 -9 17 -7 16 -9 -10 -10 -16 -2 -33
-2 -37 -1 -5 0 -7 -5 -5 -12 1 -7 -7 -11 -21 -11 -17 1 -20 -2 -12 -12 9 -10
7 -11 -9 -7 -13 3 -21 1 -21 -6 0 -7 -4 -9 -10 -6 -5 3 -10 1 -10 -4 0 -6 -9
-11 -21 -11 -11 0 -17 -4 -14 -10 3 -5 -3 -10 -14 -10 -12 0 -21 -4 -21 -10 0
-5 -9 -10 -19 -10 -10 0 -22 -7 -25 -16 -3 -8 -10 -12 -16 -9 -5 3 -10 -1 -10
-9 0 -10 -6 -13 -15 -10 -8 4 -17 -1 -21 -10 -3 -9 -10 -13 -15 -10 -5 3 -9 0
-9 -6 0 -6 -4 -8 -10 -5 -5 3 -10 1 -10 -5 0 -6 -4 -8 -10 -5 -5 3 -10 -1 -10
-9 0 -9 -8 -16 -18 -16 -20 0 -54 -35 -44 -45 4 -3 -1 -3 -11 1 -11 4 -17 1
-17 -7 0 -7 -3 -9 -7 -6 -3 4 -12 -2 -20 -13 -8 -11 -21 -20 -29 -20 -8 0 -12
-4 -9 -10 3 -5 1 -10 -5 -10 -6 0 -18 -7 -27 -15 -8 -8 -19 -13 -24 -9 -5 3
-8 0 -7 -8 2 -7 -3 -12 -9 -10 -7 1 -13 -8 -14 -20 0 -13 -3 -18 -5 -11 -4 8
-11 7 -24 -4 -10 -9 -17 -20 -14 -25 3 -4 -2 -8 -10 -8 -9 0 -16 -5 -16 -11 0
-5 -4 -7 -10 -4 -5 3 -10 -2 -10 -11 0 -10 -3 -15 -6 -11 -7 7 -42 -26 -37
-35 2 -5 -1 -8 -8 -8 -15 0 -129 -117 -121 -124 3 -4 0 -6 -6 -6 -6 0 -22 -11
-36 -25 -14 -14 -22 -25 -19 -25 4 0 -10 -15 -30 -34 -20 -18 -37 -36 -37 -38
0 -3 -16 -22 -35 -42 -19 -21 -33 -42 -30 -47 4 -5 -1 -9 -10 -9 -12 0 -15 -5
-11 -16 5 -12 2 -15 -9 -10 -9 3 -13 2 -10 -3 3 -5 1 -12 -5 -16 -6 -4 -8 -11
-5 -16 3 -5 -2 -6 -11 -2 -12 4 -15 3 -10 -5 4 -7 2 -17 -3 -24 -6 -7 -24 -30
-41 -50 -17 -20 -31 -41 -31 -45 1 -4 -6 -16 -14 -26 -8 -9 -15 -21 -15 -26 0
-4 -9 -16 -19 -25 -11 -10 -22 -28 -25 -42 -4 -13 -11 -24 -17 -24 -6 0 -7 -4
-4 -10 3 -5 0 -10 -7 -10 -9 0 -9 -3 2 -10 13 -8 12 -10 -2 -10 -11 0 -18 -8
-18 -20 0 -11 -4 -20 -10 -20 -5 0 -10 -7 -10 -15 0 -8 -4 -15 -10 -15 -5 0
-10 -9 -10 -19 0 -10 -6 -21 -14 -24 -9 -4 -12 -14 -9 -27 4 -16 2 -19 -11
-14 -12 5 -15 2 -10 -10 3 -9 1 -22 -5 -30 -6 -7 -8 -16 -4 -19 3 -4 1 -7 -6
-7 -8 0 -11 -7 -7 -15 3 -9 -1 -18 -9 -21 -8 -4 -15 -17 -15 -30 0 -13 -4 -24
-10 -24 -5 0 -10 -9 -10 -20 0 -11 -4 -20 -10 -20 -5 0 -10 -16 -10 -35 0 -23
-4 -34 -12 -32 -7 1 -12 -4 -10 -12 1 -7 -2 -19 -8 -26 -8 -10 -7 -14 2 -18 8
-3 6 -6 -5 -6 -10 -1 -15 -6 -12 -11 8 -13 -4 -52 -14 -45 -5 2 -8 -3 -8 -13
0 -38 -3 -53 -11 -49 -4 3 -8 -11 -10 -31 -1 -21 -7 -38 -12 -40 -6 -2 -10 -8
-10 -13 0 -6 6 -7 13 -3 10 6 10 4 0 -7 -7 -7 -13 -28 -13 -46 0 -18 -4 -33
-10 -33 -5 0 -10 -14 -10 -31 0 -19 -4 -28 -11 -23 -8 5 -8 1 0 -14 14 -25 14
-43 1 -22 -7 11 -10 7 -11 -20 -1 -19 -1 -43 -1 -53 1 -12 -2 -16 -11 -11 -9
6 -9 5 0 -7 10 -12 10 -18 1 -27 -7 -7 -13 -34 -14 -60 -1 -26 -3 -58 -3 -72
-1 -20 -3 -22 -11 -10 -13 19 -13 8 0 -25 5 -14 6 -24 1 -21 -5 3 -9 -26 -9
-67 0 -39 -1 -76 -2 -82 -1 -5 -1 -18 0 -28 1 -10 -4 -26 -12 -35 -9 -11 -10
-14 0 -8 6 4 12 3 12 -3 0 -5 -6 -12 -12 -14 -10 -4 -10 -6 0 -6 6 -1 12 -8
12 -16 0 -8 -6 -15 -12 -15 -9 0 -8 -4 2 -10 13 -9 13 -11 0 -20 -10 -6 -11
-10 -2 -10 6 0 12 -9 12 -19 0 -11 -6 -22 -12 -24 -10 -4 -10 -6 0 -6 6 -1 12
-6 12 -12 0 -5 -4 -8 -8 -5 -5 3 -9 -1 -9 -9 0 -8 3 -12 7 -10 7 4 9 -29 13
-170 2 -60 5 -79 15 -77 8 1 11 -2 7 -8 -3 -6 -10 -8 -14 -6 -4 3 -8 -2 -8
-10 0 -8 5 -13 11 -11 7 3 11 -16 10 -55 0 -41 3 -61 13 -65 7 -3 13 -9 13
-15 0 -5 -5 -6 -12 -2 -7 5 -8 3 -3 -6 4 -6 9 -32 10 -55 2 -24 8 -52 14 -62
5 -11 8 -31 7 -46 -2 -15 1 -30 6 -33 4 -3 5 -10 2 -16 -4 -7 -2 -8 4 -4 8 5
12 -5 12 -34 0 -23 4 -39 9 -35 6 3 10 -3 10 -12 -1 -29 7 -68 15 -81 4 -7 9
-22 11 -34 3 -12 9 -24 14 -27 5 -3 8 -18 6 -33 -2 -16 1 -26 8 -25 6 1 12 -8
13 -20 1 -13 3 -26 4 -30 1 -5 2 -12 1 -16 -1 -5 3 -6 9 -2 6 4 10 -6 10 -25
0 -18 4 -29 10 -25 6 4 10 -5 10 -19 0 -14 5 -26 10 -26 6 0 10 -8 10 -17 0
-10 7 -27 15 -37 8 -10 12 -23 8 -29 -3 -5 0 -13 6 -17 11 -6 18 -24 20 -53 1
-5 5 -6 10 -3 5 3 8 -2 7 -12 0 -9 4 -16 10 -15 6 1 11 -4 11 -12 0 -8 -4 -12
-9 -9 -4 3 2 -10 15 -29 12 -19 24 -33 27 -32 3 2 7 -8 8 -22 3 -32 11 -45 24
-37 6 4 8 2 4 -4 -3 -6 1 -17 9 -26 9 -8 17 -19 18 -23 1 -4 6 -7 11 -5 5 2 3
-4 -4 -13 -11 -14 -11 -16 1 -13 8 2 13 -3 12 -9 -2 -7 2 -13 7 -13 6 0 10 -7
10 -15 0 -8 5 -15 10 -15 6 0 10 -9 10 -21 0 -11 4 -17 10 -14 6 4 10 -5 10
-19 0 -14 5 -26 11 -26 11 0 39 -25 39 -35 0 -3 -6 -3 -12 1 -9 5 -9 3 1 -9 7
-9 17 -14 22 -11 5 3 9 -2 9 -11 0 -10 14 -30 30 -45 17 -16 31 -31 30 -34 -1
-21 1 -26 10 -21 6 3 10 -4 10 -17 0 -18 2 -20 10 -8 9 13 10 13 11 0 1 -8 1
-18 0 -22 0 -5 6 -8 15 -8 8 0 12 -4 9 -10 -3 -6 2 -10 12 -10 15 0 16 -2 3
-10 -13 -8 -12 -10 3 -10 10 0 22 -10 27 -22 5 -13 9 -19 9 -15 1 12 26 -15
34 -36 4 -10 12 -15 17 -12 6 4 9 1 8 -7 -2 -7 3 -12 10 -11 6 2 12 -7 12 -19
0 -12 3 -19 6 -15 8 8 54 -34 54 -50 0 -8 4 -12 9 -9 5 3 17 -6 27 -19 10 -14
25 -25 32 -25 7 0 10 -4 7 -10 -3 -5 -1 -10 4 -10 6 0 11 -7 11 -15 0 -9 6
-12 17 -8 9 4 14 2 11 -3 -7 -11 17 -35 26 -27 3 4 6 -2 6 -13 0 -16 2 -17 10
-4 8 13 10 12 10 -2 0 -10 7 -18 15 -18 8 0 15 -7 15 -16 0 -8 5 -12 10 -9 6
3 10 1 10 -4 0 -6 7 -11 16 -11 8 0 13 -4 10 -8 -3 -5 4 -16 15 -25 11 -10 19
-12 19 -5 0 6 13 -3 29 -20 16 -16 32 -28 35 -24 3 3 6 -2 6 -11 0 -10 8 -17
21 -17 12 0 17 -4 14 -11 -4 -6 0 -9 11 -7 10 2 19 -2 19 -9 0 -15 15 -30 15
-14 0 9 4 9 14 -1 8 -7 12 -16 10 -20 -3 -4 5 -5 16 -3 11 2 18 0 15 -6 -4 -5
0 -9 8 -9 8 0 17 -7 21 -15 3 -8 12 -15 20 -15 8 0 16 -5 18 -11 2 -5 11 -11
21 -13 9 -1 23 -10 30 -20 7 -9 22 -18 34 -19 13 0 25 -7 27 -14 3 -7 15 -13
26 -13 11 0 20 -4 20 -10 0 -5 3 -9 8 -9 20 3 33 -2 27 -11 -4 -6 -3 -10 2 -9
4 1 19 1 33 0 20 -1 22 -3 10 -11 -12 -8 -9 -10 13 -10 15 0 27 -4 27 -10 0
-5 11 -10 24 -10 14 0 28 -5 32 -12 5 -7 3 -8 -6 -3 -8 5 -11 4 -6 -3 4 -6 13
-9 20 -6 8 3 17 1 21 -5 3 -6 16 -11 27 -11 11 0 27 -8 35 -17 8 -11 11 -12 7
-3 -7 13 -5 13 9 1 9 -7 17 -10 17 -5 0 4 7 -1 16 -12 8 -10 12 -12 8 -4 -7
13 -5 13 9 1 9 -7 26 -11 37 -8 11 3 18 1 15 -4 -3 -4 7 -11 22 -14 15 -4 46
-16 67 -27 21 -12 36 -16 32 -10 -5 8 -2 10 8 6 9 -3 16 -10 16 -16 0 -5 5 -6
10 -3 6 3 10 0 10 -7 0 -10 2 -10 9 1 7 11 9 11 13 0 3 -8 14 -15 26 -15 12
-1 31 -2 43 -3 12 0 17 -5 13 -12 -4 -7 1 -7 16 1 17 9 21 9 15 0 -5 -7 -1
-11 11 -10 33 4 45 0 38 -11 -5 -8 -1 -8 14 0 25 14 43 14 22 1 -11 -7 -4 -10
28 -10 27 0 42 -5 42 -12 0 -9 4 -8 10 2 6 10 10 11 10 3 0 -9 17 -13 53 -13
37 0 48 -3 37 -10 -8 -5 -10 -10 -5 -10 6 0 17 4 25 10 9 5 19 5 27 -2 7 -6
24 -8 38 -6 14 3 28 2 30 -2 2 -4 16 -5 31 -2 16 3 29 -1 35 -9 6 -10 9 -10 9
-1 0 6 5 12 11 12 5 0 7 -6 3 -12 -5 -8 0 -7 11 2 17 14 18 13 11 -4 -7 -19
-6 -19 13 -2 14 13 21 14 27 5 5 -8 3 -10 -6 -4 -8 5 -11 4 -6 -3 8 -13 36 -5
36 12 0 6 5 3 11 -7 10 -18 11 -18 26 0 8 10 12 12 8 6 -3 -7 -1 -13 4 -14 27
-2 167 -1 176 1 6 1 15 2 20 0 34 -6 130 0 133 9 2 6 8 11 13 11 6 0 7 -4 4
-10 -4 -6 7 -10 25 -10 17 0 29 4 26 8 -3 5 1 9 9 9 8 0 12 -3 10 -7 -2 -3 5
-6 15 -6 10 0 17 3 15 7 -3 3 9 6 26 7 16 0 27 -4 24 -9 -4 -5 -2 -9 4 -9 5 0
12 6 14 13 3 6 6 2 6 -10 1 -13 7 -23 16 -23 8 0 14 -6 12 -13 -1 -6 4 -11 11
-9 8 1 11 -2 8 -7 -4 -5 5 -23 19 -39 14 -16 25 -35 25 -42 0 -6 4 -9 8 -6 5
3 15 -6 22 -19 7 -13 17 -22 22 -19 4 3 8 -2 8 -10 0 -9 8 -16 18 -17 14 0 14
-2 -3 -9 -19 -8 -19 -9 3 -9 13 -1 20 -5 17 -11 -3 -5 1 -10 10 -10 8 0 20
-10 25 -23 5 -12 9 -18 9 -14 1 4 10 -1 22 -12 13 -11 18 -24 14 -32 -5 -7 -4
-10 2 -6 6 4 25 -6 42 -22 17 -16 31 -26 31 -23 0 4 5 -1 11 -10 5 -10 18 -18
27 -18 15 0 15 -2 2 -10 -12 -8 -11 -10 5 -10 11 0 27 -9 35 -20 8 -11 23 -20
33 -20 10 0 16 -3 14 -7 -6 -9 13 -27 33 -31 8 -2 18 -10 23 -17 4 -8 17 -12
28 -10 17 4 19 2 9 -10 -10 -12 -9 -15 9 -15 11 0 21 -4 21 -8 0 -8 60 -36 73
-33 4 0 7 -3 7 -9 0 -5 7 -10 16 -10 9 0 12 -5 8 -12 -6 -10 -5 -10 7 -1 13
11 20 8 39 -12 13 -13 26 -22 31 -20 4 3 15 -2 23 -11 9 -9 23 -13 32 -10 8 3
17 -1 20 -9 4 -8 10 -13 14 -10 5 3 15 -2 23 -10 9 -8 27 -15 42 -15 16 0 24
-4 19 -11 -4 -7 1 -7 16 1 15 8 20 8 16 1 -7 -10 13 -15 51 -14 7 1 10 -3 7
-8 -4 -8 25 -14 49 -10 4 0 7 -4 7 -10 0 -7 12 -10 29 -7 18 3 28 0 24 -5 -4
-6 3 -8 15 -5 12 4 22 2 22 -4 0 -5 4 -7 9 -3 5 3 12 1 16 -5 4 -6 22 -9 41
-7 19 3 37 0 40 -5 3 -4 9 -6 14 -3 5 3 12 1 15 -5 5 -8 12 -7 23 2 12 10 14
10 8 0 -4 -6 -2 -12 3 -12 6 0 11 6 11 13 0 8 3 8 8 2 4 -6 36 -12 71 -13 35
-2 69 -6 75 -10 6 -4 26 -7 45 -8 22 -1 29 1 20 7 -11 6 -9 9 8 9 12 0 23 -6
26 -12 4 -11 7 -10 18 0 7 6 22 12 34 11 20 0 20 0 0 -9 -16 -7 -14 -8 12 -7
17 1 29 6 25 11 -3 5 5 7 16 4 12 -4 24 -3 26 1 3 4 27 6 55 5 28 0 48 2 46 7
-6 9 15 6 31 -4 7 -4 14 -1 17 6 2 7 21 12 43 11 22 0 42 4 45 8 3 5 22 10 42
11 21 1 37 7 37 12 0 6 5 3 10 -5 6 -9 10 -11 10 -3 0 7 7 10 17 6 11 -4 14
-3 9 5 -5 8 4 12 28 12 19 0 38 5 41 10 4 6 10 8 15 5 5 -3 11 -1 15 4 3 6 13
7 22 4 11 -4 14 -3 9 5 -5 8 4 12 28 12 20 0 36 5 36 10 0 6 7 10 15 10 8 0
15 6 15 13 0 9 3 8 9 -2 5 -8 10 -9 12 -3 2 6 11 12 19 14 8 2 21 10 28 18 12
13 13 13 6 0 -7 -13 -5 -13 9 -2 9 8 22 10 28 6 7 -4 9 -3 5 4 -6 10 29 28 46
24 4 -1 5 5 1 13 -4 13 -1 14 22 5 26 -10 27 -9 14 7 -8 9 -9 14 -2 10 6 -4
18 0 26 8 9 8 23 15 31 15 9 0 16 5 16 10 0 6 6 10 14 10 8 0 17 7 20 16 3 8
10 12 16 9 6 -3 13 1 16 9 3 9 10 16 16 16 5 0 6 -5 2 -12 -5 -7 -3 -8 5 -4 7
5 10 14 7 22 -3 8 -2 13 2 13 22 -4 42 2 37 11 -3 6 1 10 9 10 9 0 16 5 16 10
0 6 6 10 14 10 8 0 24 12 35 26 12 15 25 23 32 18 9 -5 10 -2 6 9 -4 11 -2 14
9 10 8 -3 14 1 14 11 0 9 8 16 19 16 10 0 21 9 24 20 3 11 12 20 21 20 9 0 16
6 16 13 0 7 11 21 25 31 14 10 25 26 26 35 0 10 2 11 6 4 7 -18 33 9 33 34 0
15 2 16 10 3 8 -12 10 -11 10 8 0 12 5 22 10 22 6 0 10 7 10 15 0 8 3 14 8 13
13 -4 61 51 49 56 -7 2 -3 5 7 5 11 1 16 4 13 8 -4 3 5 17 19 30 14 12 22 23
18 23 -4 0 0 8 9 18 10 10 14 22 10 25 -3 4 1 7 10 7 10 0 16 3 16 8 -3 20 2
32 12 27 6 -4 9 0 7 11 -2 11 2 18 7 17 6 -1 12 8 12 19 1 12 13 33 26 47 14
14 22 32 19 40 -3 10 0 12 11 8 11 -4 13 0 9 15 -3 13 1 24 11 30 9 4 14 15
11 23 -4 9 0 15 7 15 11 0 11 3 -1 10 -13 8 -12 10 3 10 12 0 17 8 17 26 0 14
4 23 10 19 6 -4 10 8 10 29 0 20 5 36 10 36 6 0 10 12 10 26 0 17 4 24 13 21
9 -3 11 6 8 36 -2 27 0 38 8 33 7 -5 12 3 13 21 0 15 2 33 3 38 2 6 3 16 4 23
0 7 5 11 9 8 4 -3 9 14 9 37 1 23 6 43 12 45 6 2 11 8 11 13 0 4 -8 6 -17 3
-15 -5 -16 -4 -3 5 16 11 17 14 19 62 0 16 5 28 9 25 4 -2 9 6 10 20 1 13 -4
24 -11 24 -8 0 -7 4 3 10 13 9 13 11 0 20 -10 6 -11 10 -2 10 8 0 12 19 12 63
0 37 5 69 13 76 9 11 9 12 0 7 -10 -5 -12 4 -11 33 1 22 5 38 10 35 4 -3 8 0
8 5 0 6 -5 11 -11 11 -6 0 -10 18 -9 42 1 24 1 45 0 48 -1 3 -3 39 -5 80 -3
71 -13 129 -30 175 -5 16 -5 17 4 5 8 -12 10 -11 8 7 0 12 -5 19 -9 17 -9 -6
-11 7 -10 44 1 12 -3 22 -9 22 -6 0 -7 4 -4 10 3 6 0 10 -7 10 -9 0 -9 3 2 10
10 6 11 10 3 10 -7 0 -13 11 -13 25 0 14 -4 33 -9 43 -26 51 -33 71 -27 80 3
6 -1 17 -9 25 -8 9 -15 28 -15 44 0 22 -2 25 -10 13 -8 -12 -10 -9 -10 13 0
16 -7 35 -16 44 -8 9 -13 22 -10 29 3 9 -1 14 -12 14 -15 0 -15 2 -2 10 11 7
11 10 2 10 -7 0 -10 5 -7 10 3 6 -2 10 -11 10 -10 0 -15 3 -11 6 3 4 -7 30
-23 59 -16 29 -26 56 -22 60 4 5 1 5 -5 1 -8 -4 -13 -1 -13 8 0 8 -5 16 -11
18 -5 2 -11 10 -12 19 -2 8 -13 26 -25 39 -12 13 -22 30 -22 37 0 8 -4 11 -10
8 -5 -3 -10 3 -10 15 0 12 -5 18 -10 15 -6 -3 -10 0 -10 7 0 8 -9 20 -19 28
-11 7 -18 17 -15 22 3 4 0 8 -6 8 -6 0 -8 5 -5 10 3 6 -1 10 -9 10 -9 0 -16 3
-16 8 0 12 -86 102 -98 102 -7 0 -9 7 -5 18 3 9 3 14 -1 10 -4 -3 -23 9 -41
27 -18 19 -35 31 -39 28 -3 -4 -6 1 -6 10 0 10 -7 17 -16 17 -8 0 -12 5 -9 10
3 5 -3 10 -15 10 -12 0 -19 4 -16 9 3 5 -2 15 -11 22 -14 12 -16 12 -9 -1 4
-8 0 -6 -8 4 -9 11 -16 17 -16 13 0 -3 -11 5 -25 19 -14 14 -30 22 -37 18 -7
-4 -8 -3 -4 5 4 6 0 14 -11 18 -10 4 -25 15 -34 25 -9 10 -19 15 -23 11 -3 -3
-6 3 -6 15 0 12 -5 22 -12 22 -9 0 -9 3 0 12 7 7 12 17 12 23 0 5 -5 3 -10 -5
-6 -9 -10 -10 -10 -3 0 6 4 14 9 18 16 9 14 392 -1 398 -10 4 -10 6 0 6 15 1
16 28 1 33 -9 3 -9 10 1 27 7 15 8 21 1 17 -10 -7 -17 81 -11 138 1 12 -3 16
-10 11 -9 -6 -9 -2 0 15 8 15 8 20 1 16 -11 -7 -13 3 -13 67 -1 15 -6 27 -12
27 -6 0 -4 5 4 10 13 8 12 10 -3 10 -14 0 -16 7 -13 33 2 17 0 41 -5 52 -4 11
-8 14 -8 6 -1 -8 -3 -12 -6 -9 -3 3 -1 17 4 32 7 17 7 26 1 26 -6 0 -10 8 -10
18 0 10 -3 22 -7 26 -4 4 -8 19 -9 34 -3 48 -4 53 -12 48 -7 -4 -12 17 -15 62
0 6 -4 12 -9 12 -5 0 -6 5 -3 10 3 6 0 10 -7 10 -9 0 -9 3 2 10 11 7 11 10 2
10 -7 0 -11 4 -7 9 3 5 0 15 -7 23 -7 7 -15 24 -17 38 -1 14 -6 27 -11 30 -4
3 -6 17 -6 32 1 15 -4 30 -11 32 -7 3 -13 18 -13 33 0 22 -2 25 -10 13 -7 -11
-10 -7 -10 18 0 18 -6 35 -14 38 -8 3 -12 14 -9 27 4 18 3 19 -6 7 -9 -13 -11
-12 -12 5 -1 11 0 28 1 39 1 11 -3 15 -9 12 -6 -4 -11 0 -11 8 0 9 -6 16 -12
16 -9 0 -8 4 2 10 13 8 13 10 -1 10 -9 0 -16 7 -17 15 -1 8 -3 22 -4 30 -1 8
-5 12 -10 9 -4 -3 -8 2 -8 11 0 9 -4 14 -8 11 -5 -3 -9 1 -9 8 0 22 -33 86
-44 86 -6 0 -8 4 -4 9 3 5 -2 16 -10 24 -8 9 -15 20 -15 26 0 6 -4 11 -10 11
-5 0 -10 8 -10 18 0 10 -9 24 -20 32 -11 8 -20 19 -20 24 0 5 -10 17 -22 27
-12 11 -16 19 -8 19 8 0 4 8 -8 19 -12 10 -22 23 -22 30 0 6 -4 11 -10 11 -5
0 -10 5 -10 11 0 7 -10 21 -22 33 -13 12 -24 27 -25 34 -4 15 -60 72 -66 66
-3 -3 -4 3 -4 13 1 10 -4 17 -11 15 -6 -1 -11 1 -11 5 3 20 -2 34 -11 28 -5
-3 -10 1 -10 10 0 9 -4 13 -10 10 -5 -3 -10 3 -10 15 0 12 -4 18 -10 15 -5 -3
-10 1 -10 9 0 9 -4 15 -9 14 -11 -4 -61 49 -53 56 3 3 -2 6 -11 6 -10 0 -17 8
-18 18 0 12 -2 13 -6 3 -4 -9 -12 0 -24 25 -10 22 -18 33 -19 27 0 -16 -40 22
-40 39 0 6 -3 9 -6 5 -3 -3 -30 19 -60 49 -30 30 -62 54 -70 54 -8 0 -12 5 -9
10 3 6 -1 10 -9 10 -9 0 -16 5 -16 10 0 6 -5 9 -12 8 -7 -2 -12 4 -13 12 0 8
-6 14 -13 12 -7 -1 -12 3 -12 10 0 6 -3 9 -6 6 -3 -3 -16 5 -30 19 -13 13 -29
21 -36 17 -7 -4 -8 -3 -4 4 4 7 -10 20 -38 33 -29 13 -43 25 -40 34 4 10 -1
12 -15 8 -15 -4 -21 -1 -21 11 0 9 -7 16 -16 16 -9 0 -12 5 -8 12 4 6 3 8 -4
5 -12 -8 -44 2 -38 12 3 4 -4 8 -16 8 -11 1 -28 11 -38 22 -9 12 -25 21 -34
21 -9 0 -16 5 -16 10 0 6 -9 10 -20 10 -11 0 -20 7 -20 15 0 8 -6 12 -14 9 -7
-3 -20 1 -27 8 -8 7 -21 13 -29 13 -8 0 -21 8 -28 18 -8 10 -19 16 -25 14 -6
-2 -20 5 -31 15 -11 10 -30 18 -43 18 -13 0 -26 6 -29 13 -3 8 -10 14 -17 15
-27 2 -45 9 -69 24 -20 13 -28 14 -38 5 -10 -9 -11 -9 -6 1 4 7 1 12 -8 12 -9
0 -16 5 -16 10 0 6 -14 10 -31 10 -17 0 -28 4 -24 10 4 6 -10 10 -34 10 -23 0
-41 5 -41 10 0 6 -11 10 -24 10 -13 0 -26 4 -28 9 -1 5 -19 11 -38 13 -19 1
-38 7 -41 11 -3 4 -22 9 -42 10 -22 1 -37 7 -37 15 0 6 -5 12 -11 12 -5 0 -7
-5 -3 -12 5 -8 3 -8 -7 -2 -8 5 -27 10 -44 11 -45 2 -47 2 -41 12 3 4 -15 8
-40 7 -25 -1 -48 2 -51 7 -2 4 -9 5 -14 2 -5 -4 -9 -2 -9 3 0 5 -8 9 -17 9
-77 0 -123 4 -119 11 3 5 -1 9 -9 9 -8 0 -12 -3 -10 -7 2 -4 -2 -7 -9 -7 -8 0
-12 5 -10 11 3 7 -22 11 -76 10 -43 0 -77 3 -74 8 3 4 0 8 -5 8 -6 0 -11 -5
-11 -12 0 -9 -3 -9 -12 0 -13 13 -32 16 -24 4 2 -4 -4 -8 -14 -8 -10 0 -17 3
-14 7 2 4 -3 9 -11 12 -10 4 -12 1 -9 -11 5 -16 5 -16 -8 0 -13 15 -15 15 -26
0 -7 -9 -10 -12 -7 -6 2 7 -6 14 -20 16 -13 3 -22 2 -20 -2 6 -9 -25 -23 -33
-15 -3 3 0 5 6 5 7 0 12 5 12 10 0 7 -7 7 -21 -1 -17 -9 -23 -8 -30 2 -5 8 -9
10 -10 4z"/>
<path d="M2716 1578 c3 -5 10 -6 15 -3 13 9 11 12 -6 12 -8 0 -12 -4 -9 -9z"/>
</g>
</svg>
